PathFileType	4	(X/Y/Z)	OpenSim_Sub02_EMGBaseline_Accel.trc
DataRate	CameraRate	NumFrames	NumMarkers	Units	OrigDataRate	OrigDataStartFrame	OrigNumFrames
100	100	42	8	m	100	1	6727
Frame#	Time	torso_imu_offset_imu	pelvis_imu_offset_imu	tibia_r_imu_offset_imu	femur_r_imu_offset_imu	tibia_l_imu_offset_imu	femur_l_imu_offset_imu	toes_r_imu_offset_imu	toes_l_imu_offset_imu
				X1	Y1	Z1	X2	Y2	Z2	X3	Y3	Z3	X4	Y4	Z4	X5	Y5	Z5	X6	Y6	Z6	X7	Y7	Z7	X8		Y8	Z8	

1	0	9.35854926	0.15677458	5.45236445	9.46240781	0.11927130	2.82231026	9.67854266	1.64637790	2.10034305	9.62951848	-1.02987169	0.83685714	9.54779364	-0.99694764	2.05517465	9.78844187	-0.31934519	-0.59370551	4.44878362	0.67937365	8.93417806	3.78223812	0.55991098	11.78814808
2	0.01000000	9.33129099	0.14503771	5.66700229	9.50973765	0.06741813	2.79637515	9.60246306	1.72298403	2.06359182	9.62182610	-1.01074609	0.82068753	9.59919123	-1.00285093	2.12347694	9.80336134	-0.36273695	-0.56911541	4.43400590	0.64134892	8.91655373	3.82479716	0.54035772	11.75244068
3	0.02000000	9.26358502	0.12693934	5.80722915	9.52880398	0.02927092	2.73900650	9.63044422	1.75800471	2.04557268	9.63268510	-0.95514795	0.83249123	9.60698356	-0.98593265	2.11424347	9.74121553	-0.44211076	-0.60732959	4.45269966	0.67853179	8.94735915	3.80704912	0.50988765	11.74540132
4	0.03000000	9.14891007	0.10769655	5.64866861	9.56359132	0.01142670	2.72783410	9.63676443	1.76899988	2.11443935	9.62566523	-0.96007537	0.86149167	9.58913351	-0.96348921	1.98939345	9.69943067	-0.54077515	-0.59528897	4.43350222	0.67272731	8.94560793	3.82915862	0.52470932	11.75453540
5	0.04000000	9.09256921	0.08124007	5.85232265	9.57085824	0.00400065	2.73307234	9.60788658	1.82112263	2.10469005	9.65132211	-0.96521208	0.85146960	9.52745351	-0.94791527	2.01155925	9.70836692	-0.61131302	-0.56663941	4.38774085	0.66163612	8.94963488	3.80303101	0.55611907	11.75278757
6	0.05000000	9.12273573	0.04816129	6.16407204	9.57094697	0.04010745	2.68433930	9.62439540	1.95484770	2.15491894	9.69445658	-0.95217382	0.82791856	9.46413871	-1.02046584	2.05295595	9.71470126	-0.69789713	-0.58881188	4.39889113	0.69661398	8.98156679	3.79259583	0.56664416	11.75944718
7	0.06000000	9.12775714	-0.02693511	6.12891032	9.61745662	0.04094766	2.65249460	9.61547771	2.09628480	2.23252781	9.68155257	-0.92863403	0.82103164	9.46620289	-1.10561223	2.02160122	9.75813317	-0.74153658	-0.61639494	4.44565174	0.67896147	8.95250360	3.76037390	0.55549179	11.77758847
8	0.07000000	9.09562897	-0.03735571	6.14443644	9.65049291	0.01004566	2.63662068	9.56745725	2.23662384	2.20176168	9.66700441	-0.92369244	0.77264124	9.52944660	-1.17954999	2.01200954	9.79226169	-0.77844131	-0.60361050	4.41935515	0.72649739	8.92307019	3.73868181	0.55789191	11.77717207
9	0.08000000	9.05300712	-0.01542018	6.27050518	9.68142349	-0.04959104	2.64981818	9.54899516	2.32148372	2.18231482	9.63394343	-0.91698347	0.74551892	9.62292470	-1.24356169	2.02460336	9.82537658	-0.82365031	-0.61390920	4.42571980	0.72849373	8.95722964	3.76243935	0.55353194	11.77593912
10	0.09000000	9.00417817	-0.07858196	6.36143759	9.71770487	-0.15513436	2.63444984	9.55141135	2.35167927	2.25473390	9.61841051	-0.90668782	0.74746848	9.64733759	-1.35158787	2.10445150	9.79079038	-0.85053831	-0.66719356	4.44742729	0.69554706	8.96041548	3.72564080	0.56998034	11.78680809
11	0.10000000	8.95902906	-0.08033610	6.42535796	9.72854527	-0.21469977	2.59602485	9.54162232	2.33919896	2.26908258	9.63502578	-0.89934812	0.74072343	9.58433480	-1.47399157	2.16006575	9.76509440	-0.89065893	-0.68406056	4.43285281	0.71972314	8.94506880	3.77190557	0.56145708	11.78185003
12	0.11000000	8.93612872	-0.05966263	6.50631643	9.75980228	-0.21334068	2.55682290	9.53793562	2.27594351	2.21520652	9.64115323	-0.84377470	0.73100993	9.52559095	-1.53541923	2.14055175	9.79879365	-0.93310172	-0.73969584	4.45506298	0.71710163	8.96960394	3.81183866	0.51431147	11.75430581
13	0.12000000	8.89782008	-0.05056414	6.60482981	9.78023472	-0.19705588	2.57010168	9.55398919	2.16766739	2.25317533	9.63177465	-0.76099582	0.75788485	9.49940788	-1.57539690	2.16703276	9.78050639	-0.98270130	-0.82369247	4.44430003	0.70293261	8.94772783	3.79932118	0.52890603	11.78143236
14	0.13000000	8.82958123	-0.07952356	6.68219856	9.79899070	-0.12716743	2.55746576	9.51571063	2.07812870	2.29275652	9.62344440	-0.70154152	0.79219841	9.43757877	-1.58467543	2.17827935	9.73407679	-1.03246519	-0.80316652	4.46550041	0.72048219	8.93494261	3.80782802	0.54203889	11.79211875
15	0.14000000	8.76846938	-0.16186226	6.76560206	9.71905987	-0.10821178	2.55221492	9.47993606	2.01244194	2.27124096	9.64636710	-0.62924872	0.82915388	9.45146180	-1.56210652	2.20199974	9.72828695	-1.07934008	-0.78794733	4.46066384	0.75046024	8.94910986	3.83872338	0.53730552	11.74998141
16	0.15000000	8.70000024	-0.14556329	6.80549857	9.70578759	-0.09069681	2.54850067	9.47872603	2.02374955	2.24045551	9.67931043	-0.56193860	0.83039469	9.41768277	-1.52622537	2.20622858	9.76717966	-1.11599825	-0.78004942	4.44150509	0.73569847	8.94032146	3.80893196	0.54300904	11.75917625
17	0.16000000	8.63607577	-0.14943459	6.89468389	9.70945739	-0.04171936	2.52929151	9.43593634	2.12225312	2.29609563	9.70677031	-0.54160661	0.82257861	9.41001373	-1.51982389	2.17625118	9.73191202	-1.13493944	-0.75145912	4.47317378	0.74296775	8.93578879	3.80971939	0.51686383	11.77133835
18	0.17000000	8.59683755	-0.14718023	6.97265085	9.65182723	-0.07893289	2.55117016	9.43245538	2.24111872	2.32801697	9.69664433	-0.53809382	0.80523974	9.45726407	-1.48436457	2.24206658	9.72719877	-1.17131388	-0.73020361	4.44497892	0.75833827	8.94515876	3.80791274	0.52625302	11.75345273
19	0.18000000	8.54795067	-0.13808186	6.98558609	9.74872246	-0.11865984	2.53897923	9.44642989	2.30979388	2.25869313	9.63815386	-0.51899100	0.77934368	9.46084449	-1.46393370	2.23310974	9.78265728	-1.13123592	-0.73707446	4.46117543	0.77211206	8.92030444	3.77165840	0.54077335	11.76556337
20	0.19000000	8.51349802	-0.11812771	7.00628142	9.72625269	-0.15338962	2.55518628	9.51105169	2.32638262	2.26387253	9.66783823	-0.49963370	0.74695490	9.52709635	-1.43880727	2.21421383	9.76582010	-1.07023418	-0.77799794	4.43218412	0.73721514	8.93251150	3.74324827	0.53119972	11.78216029
21	0.20000000	8.58056789	-0.09404518	7.07898449	9.73796455	-0.17863504	2.54844013	9.61174387	2.24939325	2.23739402	9.73269559	-0.51263070	0.71323497	9.52817572	-1.46629524	2.25200233	9.76720992	-1.05498884	-0.79687052	4.41825797	0.69996490	8.98441821	3.71873000	0.52801388	11.78496059
22	0.21000000	8.65301830	-0.13405318	7.10400836	9.81502126	-0.16684846	2.51699370	9.63367210	2.18783250	2.26971039	9.72609503	-0.50148412	0.67462308	9.52773851	-1.52498901	2.14675549	9.80610170	-1.00779208	-0.78645898	4.40679889	0.72583091	8.94816455	3.74378685	0.55395836	11.77297036
23	0.22000000	8.69604141	-0.13231411	7.05784618	9.79961193	-0.14723060	2.51038357	9.62050686	2.16049061	2.23647642	9.76437753	-0.44375507	0.69940233	9.54805198	-1.55110745	2.04993419	9.77755778	-0.99116945	-0.81211857	4.36212010	0.72075160	8.94702896	3.76791323	0.54759603	11.79095021
24	0.23000000	8.73957868	-0.14372765	7.11400766	9.89704588	-0.08317550	2.54750054	9.58193909	2.15454781	2.18828470	9.81803971	-0.37248424	0.74853049	9.53912281	-1.60168267	1.96409360	9.74592243	-1.02404612	-0.86475188	4.38701533	0.71392819	8.93657272	3.75825212	0.52790050	11.79161917
25	0.24000000	8.69675337	-0.15338567	7.16749656	9.83557665	-0.03312241	2.59093053	9.58893978	2.10968177	2.35149230	9.83549448	-0.32353161	0.77647683	9.54360353	-1.58531161	1.85704440	9.74079261	-1.03864832	-0.85176715	4.36208582	0.73229441	8.93181777	3.74341366	0.56228023	11.74853538
26	0.25000000	8.66820772	-0.11959692	7.21104098	9.86073675	0.04468389	2.58059983	9.66438652	1.94672509	2.33196361	9.86590010	-0.36046209	0.80820681	9.49043532	-1.47037702	1.90746606	9.75746338	-1.06616071	-0.82315690	4.37754814	0.74082832	8.97604344	3.69040972	0.59844746	11.78253758
27	0.26000000	8.70068612	-0.11272289	7.25741652	9.81663984	0.04392483	2.63986715	9.60447613	1.87481899	2.26005438	9.84322251	-0.37595341	0.75452443	9.50187532	-1.25552567	2.02114762	9.83526788	-1.03039595	-0.79069664	4.41674925	0.73532108	8.94111311	3.67527857	0.61184544	11.78912305
28	0.27000000	8.74643504	-0.11941489	7.28399419	9.79608287	0.03264040	2.71204346	9.50616647	1.83290395	2.18774974	9.76341262	-0.36248653	0.73048598	9.60393128	-0.99648103	2.02971047	9.86263822	-0.97214925	-0.79654505	4.43343561	0.73098360	8.92249376	3.68473337	0.58931167	11.77132633
29	0.28000000	8.75656024	-0.14176205	7.29041033	9.79964729	-0.00070969	2.73421377	9.48187101	1.72369570	2.14437778	9.74528199	-0.40031735	0.68964117	9.64168856	-0.84417659	2.09201137	9.80365636	-0.95178168	-0.79134090	4.42653818	0.71164313	8.92931935	3.70301532	0.54215228	11.78757626
30	0.29000000	8.78667090	-0.12325353	7.35652747	9.68793797	-0.09854803	2.77500896	9.48876338	1.67560111	2.19367202	9.76368715	-0.43429733	0.66352572	9.64038049	-0.81795500	2.02215791	9.78706509	-0.87688477	-0.75843211	4.41531953	0.70018563	8.92219173	3.66949935	0.50914523	11.77700712
31	0.30000000	8.79169917	-0.07433619	7.37175417	9.74562196	-0.11861030	2.78171877	9.56402585	1.69173737	2.17648716	9.72612828	-0.50043247	0.65221508	9.66412174	-0.67225103	1.83742387	9.77622628	-0.82912285	-0.74911803	4.42407546	0.72775572	8.91321322	3.62891178	0.56859480	11.75989550
32	0.31000000	8.76874891	-0.08807971	7.28022198	9.81441082	-0.12507464	2.80589597	9.62589036	1.69748990	2.13997472	9.70685635	-0.55484030	0.66494858	9.68702531	-0.62563575	1.85391626	9.75422142	-0.81891633	-0.79652228	4.43321924	0.71672472	8.94992137	3.66781955	0.61055394	11.82015439
33	0.32000000	8.78654681	-0.06142170	7.29954817	9.77433901	-0.18186602	2.85067060	9.61790746	1.73642563	2.12760271	9.75257621	-0.63210270	0.70828571	9.65366076	-0.72486720	1.99956099	9.72247793	-0.89314634	-0.81298924	4.43697906	0.68874989	8.96459466	3.68507966	0.59108420	11.82511919
34	0.33000000	8.80622947	-0.07155572	7.39361420	9.69168528	-0.21029439	2.89621124	9.60779157	1.72557656	2.20298368	9.73836344	-0.66497628	0.72075582	9.66210940	-0.64052406	1.89048504	9.72212974	-1.02610092	-0.83649177	4.45945428	0.71349798	8.94716360	3.72801817	0.54896526	11.77359599
35	0.34000000	8.82388942	-0.13008102	7.37051265	9.70946052	-0.16408804	2.89271444	9.57895691	1.72065426	2.28102293	9.72818316	-0.67482093	0.72530440	9.73702214	-0.65159879	1.65801161	9.69827235	-1.16874197	-0.90526019	4.43801958	0.71724031	8.94540743	3.74679853	0.52514564	11.79390234
36	0.35000000	8.75349698	-0.09964905	7.27963559	9.60853041	-0.15912558	2.87406536	9.56724693	1.75944053	2.29561223	9.74000191	-0.75823450	0.72703972	9.72256718	-0.82578503	1.68550341	9.64745673	-1.26781244	-0.95672773	4.38936615	0.72241952	8.94603455	3.69979834	0.58268230	11.78376088
37	0.36000000	8.70347727	-0.04709464	7.28956400	9.54929223	-0.13731878	2.89173086	9.55546339	1.78496562	2.27499428	9.77113756	-0.81929346	0.72578896	9.64989428	-0.88321260	1.70546152	9.70522985	-1.31866165	-0.97671363	4.40380507	0.72088087	8.94224473	3.65350598	0.62369840	11.77582514
38	0.37000000	8.70372229	0.02120624	7.29106039	9.55973941	-0.14751619	2.88300619	9.60280527	1.83507173	2.26820591	9.75397459	-0.81853292	0.74057205	9.65406469	-0.84543921	1.63777165	9.77431500	-1.33576721	-0.93145611	4.38866795	0.73011400	8.95592027	3.67172049	0.65872033	11.78998870
39	0.38000000	8.71834942	-0.00570944	7.25431354	9.55592299	-0.15820584	2.87202175	9.69238204	1.84360322	2.27781248	9.72053745	-0.77024573	0.72482234	9.69504696	-0.87314057	1.66291814	9.80620778	-1.29030725	-0.93192319	4.40154150	0.71649815	8.94807069	3.71736443	0.60504677	11.79179718
40	0.39000000	8.75513426	-0.00462436	7.23507981	9.55328299	-0.13729732	2.89479082	9.69728082	1.87460026	2.25286719	9.67694336	-0.77952216	0.70169385	9.75320034	-0.92441888	1.81625078	9.78060001	-1.24051154	-0.93158915	4.44344867	0.69222692	8.95333547	3.74589168	0.54242760	11.79758384
41	0.40000000	8.72020077	0.01463526	7.25142259	9.55007506	-0.17756338	2.85949221	9.62923254	1.92086025	2.22900164	9.65761250	-0.81475352	0.73370664	9.77800993	-0.99183529	1.81604787	9.70706931	-1.18190773	-0.91179446	4.45347633	0.70493156	8.93964819	3.75147686	0.53217832	11.76784821
42	0.41000000	8.64886641	0.00577295	7.23616658	9.51674491	-0.18466729	2.81063795	9.55574150	1.92881676	2.26277239	9.66461438	-0.82383226	0.73092473	9.66069705	-1.03891921	1.83644399	9.70200924	-1.12090742	-0.88651113	4.46615988	0.76220946	8.92255490	3.70848352	0.52689536	11.75762421
